<?xml version="1.0" encoding="iso-8859-1"?>
<!-- Generator: Adobe Illustrator 16.0.0, SVG Export Plug-In . SVG Version: 6.00 Build 0)  -->
<!DOCTYPE svg PUBLIC "-//W3C//DTD SVG 1.1//EN" "http://www.w3.org/Graphics/SVG/1.1/DTD/svg11.dtd">
<svg version="1.1" xmlns="http://www.w3.org/2000/svg" xmlns:xlink="http://www.w3.org/1999/xlink" x="0px" y="0px" width="512px"
	 height="512px" viewBox="0 0 512 512" style="enable-background:new 0 0 512 512;" xml:space="preserve">
<g id="_x33_21_x2C__Books_x2C__Education_x2C__Literature_x2C__Pen">
	<g>
		<g>
			<polygon style="fill:#754928;" points="139.54,106 121,106 61,136 121,166 140.45,166 			"/>
			<path style="fill:#CE3B0D;" d="M156,26c13.811,0,25,11.19,25,25s-11.189,25-25,25c-13.81,0-25-11.19-25-25S142.19,26,156,26z"/>
			<path style="fill:#CE3B0D;" d="M456,246c11.051,0,20,8.95,20,20s-8.949,20-20,20c-11.05,0-20-8.95-20-20S444.95,246,456,246z"/>
			<rect x="141" y="426" style="fill:#6680E1;" width="310" height="25"/>
			<rect x="141" y="376" style="fill:#6680E1;" width="310" height="25"/>
			<path style="fill:#7AA0FB;" d="M470.881,456.12c3.159,3.17,5.119,7.54,5.119,12.38c0,9.67-7.829,17.5-17.5,17.5h-325
				c-4.829,0-9.199-1.96-12.369-5.12c-3.17-3.17-5.131-7.54-5.131-12.38c0-9.67,7.841-17.5,17.5-17.5h7.5h310h7.5
				C463.341,451,467.711,452.96,470.881,456.12z"/>
			<rect x="141" y="401" style="fill:#7AA0FB;" width="310" height="25"/>
			<path style="fill:#7AA0FB;" d="M470.881,346.12c3.159,3.17,5.119,7.54,5.119,12.38c0,9.67-7.829,17.5-17.5,17.5H451H141h-7.5
				c-4.829,0-9.199-1.96-12.369-5.12c-3.17-3.17-5.131-7.54-5.131-12.38c0-9.67,7.841-17.5,17.5-17.5h245h80
				C463.341,341,467.711,342.96,470.881,346.12z"/>
			<path style="fill:#BF7D4F;" d="M346,106v30l-205.449,0.09c-0.04,0-0.07,0-0.11,0h-0.979c-8-0.05-14.461-7.55-14.461-15.55
				c0-4.02,1.631-7.65,4.261-10.28c2.63-2.63,6.26-4.26,10.279-4.26H346z"/>
			<path style="fill:#965E33;" d="M346,136v30H140.45c-4.27,0-8.13-1.73-10.92-4.53c-2.8-2.79-4.53-6.65-4.53-10.92
				c0-8.53,6.921-14.46,15.44-14.46c0.04,0,0.07,0,0.11,0L346,136z"/>
			<path style="fill:#754928;" d="M381,127v18c0,11.6-9.399,21-21,21h-14v-30v-30h14C371.601,106,381,115.4,381,127z"/>
			<rect x="61" y="281" style="fill:#CE3B0D;" width="310" height="25"/>
			<circle style="fill:#CE3B0D;" cx="443.5" cy="188.5" r="7.5"/>
			<circle style="fill:#CE3B0D;" cx="423.5" cy="308.5" r="7.5"/>
			<circle style="fill:#CE3B0D;" cx="418.5" cy="48.5" r="7.5"/>
			<path style="fill:#DF6426;" d="M390.881,201.13c3.159,3.17,5.119,7.54,5.119,12.37c0,9.66-7.829,17.5-17.5,17.5H371H61h-7.5
				c-4.829,0-9.199-1.96-12.369-5.13C37.96,222.7,36,218.33,36,213.5c0-9.66,7.841-17.5,17.5-17.5h325
				C383.341,196,387.711,197.96,390.881,201.13z"/>
			<path style="fill:#DF6426;" d="M390.881,311.12c3.159,3.17,5.119,7.54,5.119,12.38c0,9.67-7.829,17.5-17.5,17.5h-245h-80
				c-4.829,0-9.199-1.96-12.369-5.12C37.96,332.71,36,328.34,36,323.5c0-9.67,7.841-17.5,17.5-17.5H61h310h7.5
				C383.341,306,387.711,307.96,390.881,311.12z"/>
			<rect x="61" y="256" style="fill:#DF6426;" width="310" height="25"/>
			<rect x="61" y="231" style="fill:#CE3B0D;" width="310" height="25"/>
			<circle style="fill:#CE3B0D;" cx="253.5" cy="63.5" r="7.5"/>
			<circle style="fill:#CE3B0D;" cx="78.5" cy="408.5" r="7.5"/>
			<circle style="fill:#CE3B0D;" cx="48.5" cy="98.5" r="7.5"/>
		</g>
	</g>
</g>
<g id="Layer_1">
</g>
</svg>
